<?xml version="1.0" encoding="UTF-8" standalone="no"?>
<svg
   xmlns:dc="http://purl.org/dc/elements/1.1/"
   xmlns:cc="http://creativecommons.org/ns#"
   xmlns:rdf="http://www.w3.org/1999/02/22-rdf-syntax-ns#"
   xmlns:svg="http://www.w3.org/2000/svg"
   xmlns="http://www.w3.org/2000/svg"
   xmlns:sodipodi="http://sodipodi.sourceforge.net/DTD/sodipodi-0.dtd"
   xmlns:inkscape="http://www.inkscape.org/namespaces/inkscape"
   id="svg1131"
   version="1.1"
   viewBox="0 0 50.27084 10.583336"
   height="40.000011"
   width="190.00003"
   sodipodi:docname="logo.svg"
   inkscape:version="0.92.5 (2060ec1f9f, 2020-04-08)">
  <sodipodi:namedview
     pagecolor="#ffffff"
     bordercolor="#666666"
     borderopacity="1"
     objecttolerance="10"
     gridtolerance="10"
     guidetolerance="10"
     inkscape:pageopacity="0"
     inkscape:pageshadow="2"
     inkscape:window-width="1366"
     inkscape:window-height="703"
     id="namedview7"
     showgrid="false"
     inkscape:pagecheckerboard="true"
     inkscape:zoom="2.5052628"
     inkscape:cx="81.380276"
     inkscape:cy="-2.99989"
     inkscape:window-x="0"
     inkscape:window-y="0"
     inkscape:window-maximized="1"
     inkscape:current-layer="svg1131" />
  <defs
     id="defs1125" />
  <metadata
     id="metadata1128">
    <rdf:RDF>
      <cc:Work
         rdf:about="">
        <dc:format>image/svg+xml</dc:format>
        <dc:type
           rdf:resource="http://purl.org/dc/dcmitype/StillImage" />
        <dc:title></dc:title>
      </cc:Work>
    </rdf:RDF>
  </metadata>
  <path
     style="display:inline;fill:#f7f7f7;fill-opacity:1;fill-rule:evenodd;stroke:none;stroke-width:0.39465582px;stroke-linecap:butt;stroke-linejoin:miter;stroke-opacity:1"
     d="m 46.79218,2.5465608 c -0.308464,0.012927 -0.626479,0.1076184 -0.932321,0.3126688 -0.58863,0.036784 -1.18436,-0.043476 -1.772261,0.00569 -1.739288,-0.026072 -1.324668,2.5848701 0.26861,2.2426872 -1.252578,3.6037065 4.360607,3.1116657 3.185667,0.00711 C 49.846006,4.8004792 48.457911,2.4767933 46.79218,2.5465637 Z M 18.669761,2.7988275 c -0.611059,0.013476 -1.247219,0.118827 -1.793581,0.041215 -3.187683,0.4477666 -1.664322,6.6420664 1.764447,4.885449 C 21.582164,8.1048732 20.168233,4.8464268 20.311273,3.308335 19.866505,2.8633041 19.280836,2.785299 18.669761,2.7988275 Z M 5.1503932,2.8109067 C 4.5130687,2.8150325 3.8363944,2.9365225 3.289304,2.852833 -0.06692704,2.978216 1.8897841,10.108166 4.5975387,7.0006679 5.7007804,6.4102613 7.6158102,5.6114761 6.7734286,3.4710644 6.3850549,2.9194642 5.7877317,2.8067005 5.1503932,2.8109067 Z m 26.8752948,0.00924 c -0.170608,6.185e-4 -0.338283,0.00957 -0.497424,0.023449 -2.067378,-0.2326791 -2.695328,1.8858747 -2.250505,3.1515587 -0.540037,3.4564612 7.115919,1.6021543 4.772462,-1.2307779 0.504516,-1.5702477 -0.830186,-1.948689 -2.024533,-1.9442309 z m -0.02984,0.856286 h 7.28e-4 c 0.223502,4.91e-5 0.523912,0.027018 0.901053,0.08101 0.136412,0.018563 0.242149,0.066107 0.317644,0.1421221 0.07549,0.07603 0.09591,0.1537143 0.0611,0.2330804 l -0.0092,0.00497 c -0.04346,0.077722 -0.123987,0.1364395 -0.240184,0.176942 -0.119086,0.042216 -0.247901,0.052516 -0.387286,0.030555 -0.57782,-0.094566 -0.985567,-0.087075 -1.223671,0.022739 -0.127745,0.059171 -0.191863,0.1320808 -0.191863,0.2181578 0,0.086151 0.07292,0.156305 0.218158,0.2103407 0.142284,0.054056 0.427954,0.1278446 0.857706,0.2224212 C 33.18276,5.211313 33.6239,5.5232605 33.6239,5.9539344 l 0.0029,-7.277e-4 c 0,0.2719194 -0.164324,0.4974794 -0.492454,0.6765014 -0.392004,0.2094206 -0.964073,0.3140898 -1.716126,0.3140903 -0.287468,0 -0.644751,-0.037254 -1.071599,-0.1115661 -0.133524,-0.018563 -0.235812,-0.064266 -0.308407,-0.138569 -0.07549,-0.074312 -0.09798,-0.1515687 -0.06609,-0.2309486 l 0.0086,-0.00924 c 0.03768,-0.086151 0.122299,-0.1503556 0.252977,-0.1925755 0.133526,-0.043921 0.274017,-0.051522 0.422104,-0.022739 0.348439,0.064191 0.640258,0.095932 0.875473,0.095932 0.232285,0 0.422533,-0.029656 0.57062,-0.088826 0.148087,-0.059171 0.221709,-0.1357111 0.221709,-0.2302381 0,-0.096272 -0.06474,-0.1744196 -0.195419,-0.235212 -0.133523,-0.060767 -0.364727,-0.1261466 -0.692843,-0.1954182 -1.00759,-0.2094326 -1.51076,-0.5273165 -1.51076,-0.9529288 0,-0.2905039 0.190251,-0.5208454 0.57062,-0.6914243 0.380246,-0.1789613 0.87977,-0.2669517 1.50081,-0.2636364 z m -15.025863,0.00426 h 2.217106 c 0.165509,0 0.294353,0.03332 0.387283,0.1009061 0.142283,0.1012905 0.172951,0.200715 0.09167,0.2970357 -0.08127,0.096272 -0.137919,0.1517996 -0.169836,0.1669934 -0.09873,0.045626 -0.204374,0.066654 -0.317642,0.063244 l -1.677752,-0.045479 v 0.7198488 l 1.581819,-0.023449 c 0.130636,-0.00208 0.245202,0.024421 0.343936,0.078877 0.09873,0.054056 0.147807,0.1214766 0.147807,0.2025242 v 0.00924 c 0,0.081022 -0.04909,0.1495891 -0.147807,0.2053665 -0.09874,0.055761 -0.213259,0.082714 -0.343936,0.08101 l -1.58182,-0.022746 v 0.8015688 l 1.803529,-0.019898 c 0.127749,-0.00208 0.242315,0.023671 0.343936,0.078167 0.101617,0.054056 0.152071,0.123054 0.152071,0.2074985 v 0.00995 c 0,0.079426 -0.04711,0.147998 -0.142833,0.2053665 -0.09585,0.05576 -0.213847,0.083425 -0.353174,0.081721 h -2.334356 c -0.211974,0 -0.395412,-0.045455 -0.549302,-0.1350162 C 16.266787,6.6538775 16.190452,6.5469009 16.190452,6.4236503 V 4.1340626 c 0,-0.1216152 0.07434,-0.2285634 0.222421,-0.3197748 0.148086,-0.089547 0.333525,-0.1335953 0.557118,-0.1335947 z M 3.3816945,3.6941964 h 2.1773113 c 0.159706,0 0.2872007,0.034979 0.3830189,0.105881 0.063806,0.045627 0.095928,0.1043413 0.095928,0.1769425 v 0.1094336 c 0,0.05235 -0.053867,0.1024217 -0.1613084,0.1513603 -0.1073932,0.04894 -0.2131072,0.072229 -0.3176429,0.06893 L 3.873437,4.2605538 v 0.735482 l 1.7033344,-0.045479 c 0.1277473,-0.00316 0.2409522,0.02426 0.3396718,0.083142 0.098728,0.059171 0.149127,0.1265774 0.1520702,0.2025238 v 0.00497 c 0,0.079317 -0.051769,0.1478896 -0.1563346,0.2053664 -0.1045049,0.057356 -0.216337,0.084323 -0.3354074,0.08101 L 3.8741475,5.4820921 v 1.0360707 c 0,0.1047015 -0.062768,0.1942859 -0.1876011,0.2686107 -0.1248606,0.074311 -0.2796757,0.1115661 -0.4626076,0.1115661 h -0.00782 c -0.1771286,0 -0.3285092,-0.037254 -0.4533696,-0.1115661 C 2.6350058,6.7124622 2.5715997,6.6228735 2.5715997,6.5181628 V 4.16462 c 0,-0.1283531 0.079825,-0.2389565 0.2394757,-0.3318554 C 2.9707816,3.7398896 3.1610173,3.6941958 3.381696,3.6941958 Z m 40.8110835,0.00995 h 7.27e-4 3.339871 c 0.148088,0 0.268785,0.034979 0.361701,0.105881 0.09296,0.070901 0.114881,0.1556812 0.06538,0.2536883 v 0.00924 c -0.02325,0.055666 -0.07852,0.103208 -0.165573,0.1421226 -0.08993,0.038806 -0.177252,0.055472 -0.261505,0.050454 l -1.001961,-0.04477 v 2.3002469 c 0,0.1097621 -0.06332,0.2025516 -0.191154,0.2785595 -0.127745,0.074311 -0.28801,0.111566 -0.479659,0.111566 h -0.0049 c -0.185831,0 -0.342675,-0.037254 -0.470424,-0.111566 C 45.257447,6.7252524 45.194038,6.632478 45.194038,6.5210039 V 4.2207573 l -1.001958,0.044768 c -0.09874,0.00536 -0.190794,-0.013418 -0.275008,-0.057559 -0.08375,-0.041969 -0.133537,-0.087276 -0.151361,-0.1343052 v -0.00995 c -0.0407,-0.1047015 -0.01601,-0.1903773 0.07391,-0.2579516 0.08993,-0.067588 0.207945,-0.1016177 0.353173,-0.1016177 z"
     id="path829"
     inkscape:connector-curvature="0" />
</svg>
